<svg id="visual" viewBox="0 0 900 450" width="900" height="450" xmlns="http://www.w3.org/2000/svg" xmlns:xlink="http://www.w3.org/1999/xlink" version="1.1"><rect x="0" y="0" width="900" height="450" fill="#FFF"></rect><defs><linearGradient id="grad1_0" x1="50%" y1="0%" x2="100%" y2="100%"><stop offset="10%" stop-color="#918ef4" stop-opacity="1"></stop><stop offset="90%" stop-color="#918ef4" stop-opacity="1"></stop></linearGradient></defs><defs><linearGradient id="grad1_1" x1="50%" y1="0%" x2="100%" y2="100%"><stop offset="10%" stop-color="#918ef4" stop-opacity="1"></stop><stop offset="90%" stop-color="#cbc5fa" stop-opacity="1"></stop></linearGradient></defs><defs><linearGradient id="grad1_2" x1="50%" y1="0%" x2="100%" y2="100%"><stop offset="10%" stop-color="#ffffff" stop-opacity="1"></stop><stop offset="90%" stop-color="#cbc5fa" stop-opacity="1"></stop></linearGradient></defs><defs><linearGradient id="grad2_0" x1="0%" y1="0%" x2="50%" y2="100%"><stop offset="10%" stop-color="#918ef4" stop-opacity="1"></stop><stop offset="90%" stop-color="#918ef4" stop-opacity="1"></stop></linearGradient></defs><defs><linearGradient id="grad2_1" x1="0%" y1="0%" x2="50%" y2="100%"><stop offset="10%" stop-color="#cbc5fa" stop-opacity="1"></stop><stop offset="90%" stop-color="#918ef4" stop-opacity="1"></stop></linearGradient></defs><defs><linearGradient id="grad2_2" x1="0%" y1="0%" x2="50%" y2="100%"><stop offset="10%" stop-color="#cbc5fa" stop-opacity="1"></stop><stop offset="90%" stop-color="#ffffff" stop-opacity="1"></stop></linearGradient></defs><g transform="translate(900, 0)"><path d="M0 337.5C-45.3 305.5 -90.7 273.5 -144 249.4C-197.3 225.3 -258.7 209 -292.3 168.8C-325.9 128.5 -331.7 64.2 -337.5 0L0 0Z" fill="#e6e2fd"></path><path d="M0 225C-30.2 203.7 -60.4 182.4 -96 166.3C-131.6 150.2 -172.5 139.3 -194.9 112.5C-217.2 85.7 -221.1 42.8 -225 0L0 0Z" fill="#afa9f7"></path><path d="M0 112.5C-15.1 101.8 -30.2 91.2 -48 83.1C-65.8 75.1 -86.2 69.7 -97.4 56.3C-108.6 42.8 -110.6 21.4 -112.5 0L0 0Z" fill="#918ef4"></path></g><g transform="translate(0, 450)"><path d="M0 -337.5C62.1 -330.4 124.1 -323.3 168.7 -292.3C213.4 -261.2 240.6 -206.2 265.9 -153.5C291.1 -100.8 314.3 -50.4 337.5 0L0 0Z" fill="#e6e2fd"></path><path d="M0 -225C41.4 -220.3 82.7 -215.6 112.5 -194.9C142.3 -174.2 160.4 -137.5 177.2 -102.3C194.1 -67.2 209.5 -33.6 225 0L0 0Z" fill="#afa9f7"></path><path d="M0 -112.5C20.7 -110.1 41.4 -107.8 56.2 -97.4C71.1 -87.1 80.2 -68.7 88.6 -51.2C97 -33.6 104.8 -16.8 112.5 0L0 0Z" fill="#918ef4"></path></g></svg>