<svg id="visual" viewBox="0 0 675 900" width="675" height="900" xmlns="http://www.w3.org/2000/svg" xmlns:xlink="http://www.w3.org/1999/xlink" version="1.1"><rect x="0" y="0" width="675" height="900" fill="#fff"></rect><defs><linearGradient id="grad1_0" x1="0%" y1="0%" x2="100%" y2="100%"><stop offset="30%" stop-color="#918ef4" stop-opacity="1"></stop><stop offset="70%" stop-color="#918ef4" stop-opacity="1"></stop></linearGradient></defs><defs><linearGradient id="grad1_1" x1="0%" y1="0%" x2="100%" y2="100%"><stop offset="30%" stop-color="#918ef4" stop-opacity="1"></stop><stop offset="70%" stop-color="#cbc5fa" stop-opacity="1"></stop></linearGradient></defs><defs><linearGradient id="grad1_2" x1="0%" y1="0%" x2="100%" y2="100%"><stop offset="30%" stop-color="#ffffff" stop-opacity="1"></stop><stop offset="70%" stop-color="#cbc5fa" stop-opacity="1"></stop></linearGradient></defs><defs><linearGradient id="grad2_0" x1="0%" y1="0%" x2="100%" y2="100%"><stop offset="30%" stop-color="#918ef4" stop-opacity="1"></stop><stop offset="70%" stop-color="#918ef4" stop-opacity="1"></stop></linearGradient></defs><defs><linearGradient id="grad2_1" x1="0%" y1="0%" x2="100%" y2="100%"><stop offset="30%" stop-color="#cbc5fa" stop-opacity="1"></stop><stop offset="70%" stop-color="#918ef4" stop-opacity="1"></stop></linearGradient></defs><defs><linearGradient id="grad2_2" x1="0%" y1="0%" x2="100%" y2="100%"><stop offset="30%" stop-color="#cbc5fa" stop-opacity="1"></stop><stop offset="70%" stop-color="#ffffff" stop-opacity="1"></stop></linearGradient></defs><g transform="translate(675, 0)"><path d="M0 365.6C-64.8 355.1 -129.5 344.6 -180 311.8C-230.5 278.9 -266.7 223.7 -291 168C-315.3 112.3 -327.6 56.2 -340 0L0 0Z" fill="#e6e2fd"></path><path d="M0 243.8C-43.2 236.8 -86.3 229.8 -120 207.8C-153.7 185.9 -177.8 149.1 -194 112C-210.2 74.9 -218.4 37.4 -226.7 0L0 0Z" fill="#afa9f7"></path><path d="M0 121.9C-21.6 118.4 -43.2 114.9 -60 103.9C-76.8 93 -88.9 74.6 -97 56C-105.1 37.4 -109.2 18.7 -113.3 0L0 0Z" fill="#918ef4"></path></g><g transform="translate(0, 900)"><path d="M0 -365.6C55.2 -341.1 110.4 -316.6 166.5 -288.4C222.6 -260.2 279.5 -228.2 310.9 -179.5C342.3 -130.8 348.1 -65.4 354 0L0 0Z" fill="#e6e2fd"></path><path d="M0 -243.7C36.8 -227.4 73.6 -211.1 111 -192.3C148.4 -173.4 186.3 -152.1 207.3 -119.7C228.2 -87.2 232.1 -43.6 236 0L0 0Z" fill="#afa9f7"></path><path d="M0 -121.9C18.4 -113.7 36.8 -105.5 55.5 -96.1C74.2 -86.7 93.2 -76.1 103.6 -59.8C114.1 -43.6 116 -21.8 118 0L0 0Z" fill="#918ef4"></path></g></svg>